<svg width="38" height="35" viewBox="0 0 38 35" fill="none" xmlns="http://www.w3.org/2000/svg">
<path d="M31.6667 14.5833V10.2083C31.6667 8.5975 30.249 7.29167 28.5 7.29167H9.50004C7.75114 7.29167 6.33337 8.5975 6.33337 10.2083V14.5833M31.6667 14.5833V27.7083C31.6667 29.3192 30.249 30.625 28.5 30.625H9.50004C7.75114 30.625 6.33337 29.3192 6.33337 27.7083V14.5833M31.6667 14.5833H6.33337M12.6667 4.375V10.2083M25.3334 4.375V10.2083" stroke="#898989" stroke-width="3" stroke-linecap="round"/>
<path d="M13.4583 17.5H10.2917C9.85444 17.5 9.5 17.8265 9.5 18.2292V21.1458C9.5 21.5485 9.85444 21.875 10.2917 21.875H13.4583C13.8956 21.875 14.25 21.5485 14.25 21.1458V18.2292C14.25 17.8265 13.8956 17.5 13.4583 17.5Z" fill="#898989"/>
<path d="M20.5833 17.5H17.4167C16.9794 17.5 16.625 17.8265 16.625 18.2292V21.1458C16.625 21.5485 16.9794 21.875 17.4167 21.875H20.5833C21.0206 21.875 21.375 21.5485 21.375 21.1458V18.2292C21.375 17.8265 21.0206 17.5 20.5833 17.5Z" fill="#898989"/>
<path d="M27.7083 17.5H24.5417C24.1044 17.5 23.75 17.8265 23.75 18.2292V21.1458C23.75 21.5485 24.1044 21.875 24.5417 21.875H27.7083C28.1456 21.875 28.5 21.5485 28.5 21.1458V18.2292C28.5 17.8265 28.1456 17.5 27.7083 17.5Z" fill="#898989"/>
</svg>
