<svg width="48" height="47" viewBox="0 0 48 47" fill="none" xmlns="http://www.w3.org/2000/svg">
<path d="M18 9.79167C18 7.62855 19.7909 5.875 22 5.875H26C28.2092 5.875 30 7.62855 30 9.79167V13.7083H18V9.79167Z" stroke="white" stroke-width="2" stroke-linecap="round" stroke-linejoin="round"/>
<path d="M18 9.79163H14C11.7909 9.79163 10 11.5452 10 13.7083V37.2083C10 39.3715 11.7909 41.125 14 41.125H20M30 9.79163H34C36.2092 9.79163 38 11.5452 38 13.7083V23.5" stroke="white" stroke-width="2" stroke-linecap="round" stroke-linejoin="round"/>
<path d="M28 31.3334L33 36.2292M33 36.2292L38 41.125M33 36.2292L38 31.3334M33 36.2292L28 41.125" stroke="white" stroke-width="2" stroke-linecap="round" stroke-linejoin="round"/>
</svg>
