<svg width="46" height="46" viewBox="0 0 46 46" fill="none" xmlns="http://www.w3.org/2000/svg">
<path d="M40.7865 12.2668L22.5015 30.5517C20.6806 32.3725 15.2756 33.2159 14.0681 32.0084C12.8606 30.8009 13.6848 25.3959 15.5056 23.575L33.8098 5.27089C34.2612 4.77843 34.8076 4.38256 35.4164 4.10713C36.0249 3.83171 36.6831 3.6824 37.351 3.66833C38.0188 3.65428 38.6827 3.77568 39.3024 4.02525C39.9221 4.27482 40.4848 4.64742 40.9565 5.12045C41.4282 5.59349 41.7992 6.15718 42.0471 6.77753C42.2949 7.3979 42.4147 8.06202 42.3988 8.72988C42.3829 9.39774 42.2316 10.0555 41.9547 10.6634C41.6775 11.2713 41.2802 11.8167 40.7865 12.2668Z" stroke="white" stroke-width="2" stroke-linecap="round" stroke-linejoin="round"/>
<path d="M21.0834 7.66663H11.5C9.46671 7.66663 7.51679 8.47435 6.079 9.91213C4.64123 11.3499 3.83337 13.3 3.83337 15.3333V34.5C3.83337 36.5334 4.64123 38.4834 6.079 39.9211C7.51679 41.3589 9.46671 42.1666 11.5 42.1666H32.5834C36.8192 42.1666 38.3334 38.7166 38.3334 34.5V24.9166" stroke="white" stroke-width="2" stroke-linecap="round" stroke-linejoin="round"/>
</svg>
