<svg width="59" height="60" viewBox="0 0 59 60" fill="none" xmlns="http://www.w3.org/2000/svg">
<g clip-path="url(#clip0_1_66)">
<path d="M29.3828 57.5C44.2581 57.5 56.3169 45.1878 56.3169 30C56.3169 14.8122 44.2581 2.5 29.3828 2.5C14.5074 2.5 2.44861 14.8122 2.44861 30C2.44861 45.1878 14.5074 57.5 29.3828 57.5Z" stroke="#4F86FF" stroke-width="4"/>
<path d="M29.3827 47.5C38.8488 47.5 46.5226 39.665 46.5226 30C46.5226 20.335 38.8488 12.5 29.3827 12.5C19.9166 12.5 12.2428 20.335 12.2428 30C12.2428 39.665 19.9166 47.5 29.3827 47.5Z" stroke="#4F86FF" stroke-width="3"/>
<path d="M29.3827 38.75C34.1158 38.75 37.9527 34.8325 37.9527 30C37.9527 25.1675 34.1158 21.25 29.3827 21.25C24.6496 21.25 20.8127 25.1675 20.8127 30C20.8127 34.8325 24.6496 38.75 29.3827 38.75Z" stroke="#4F86FF" stroke-width="2"/>
</g>
<defs>
<clipPath id="clip0_1_66">
<rect width="58.7654" height="60" fill="white"/>
</clipPath>
</defs>
</svg>
