<svg width="75" height="75" viewBox="0 0 75 75" fill="none" xmlns="http://www.w3.org/2000/svg">
<path d="M46.875 28.125L39.0625 35.9375M46.875 28.125V18.75L56.25 9.375V18.75H65.625L56.25 28.125H46.875Z" stroke="white" stroke-width="5" stroke-linecap="round" stroke-linejoin="round"/>
<path d="M38.5313 9.375H37.5C31.9374 9.375 26.4997 11.0245 21.8746 14.1149C17.2495 17.2053 13.6446 21.5979 11.5159 26.737C9.38719 31.8762 8.83022 37.5312 9.91543 42.9869C11.0006 48.4426 13.6793 53.454 17.6126 57.3874C21.546 61.3207 26.5574 63.9994 32.0131 65.0846C37.4688 66.1698 43.1238 65.6128 48.263 63.4841C53.4022 61.3554 57.7947 57.7505 60.8851 53.1254C63.9755 48.5003 65.625 43.0626 65.625 37.5C65.625 37.1562 65.625 36.8125 65.625 36.4687" stroke="white" stroke-width="5" stroke-linecap="round" stroke-linejoin="round"/>
<path d="M52.8125 40.625C52.2473 43.3903 50.9436 45.9509 49.0398 48.0348C47.1361 50.1186 44.7034 51.6479 42.0003 52.4601C39.2972 53.2723 36.4245 53.3371 33.6875 52.6477C30.9505 51.9583 28.4513 50.5404 26.4555 48.5445C24.4597 46.5487 23.0417 44.0495 22.3523 41.3125C21.6629 38.5755 21.7277 35.7028 22.5399 32.9997C23.3521 30.2966 24.8814 27.8639 26.9652 25.9602C29.0491 24.0565 31.6097 22.7527 34.375 22.1875" stroke="white" stroke-width="5" stroke-linecap="round" stroke-linejoin="round"/>
</svg>
